<svg width="142" height="120" viewBox="0 0 142 120" fill="none" xmlns="http://www.w3.org/2000/svg">
<path d="M44.8963 102.155H5.56425L10.7276 5.34778H79.9463L82.6184 55.4745C82.6965 56.9413 83.9352 58.064 85.3922 57.9874C86.8456 57.9083 87.9606 56.6554 87.8823 55.1887L85.0759 2.54514C85.0007 1.1337 83.8445 0.0283203 82.4441 0.0283203H8.23007C6.82969 0.0283203 5.67354 1.1337 5.59833 2.54514L0.151417 104.672C0.112761 105.401 0.372456 106.114 0.870059 106.644C1.36801 107.174 2.0596 107.474 2.78316 107.474H44.8963C46.3522 107.474 47.5319 106.284 47.5319 104.815C47.5319 103.346 46.3522 102.155 44.8963 102.155Z" fill="black"/>
<path d="M25.2673 9.9126C23.8114 9.9126 22.6317 11.1034 22.6317 12.5723V25.0284C22.6317 37.0543 32.3269 46.8382 44.2437 46.8382C56.1605 46.8382 65.8557 37.0543 65.8557 25.0284V12.5723C65.8557 11.1034 64.676 9.9126 63.22 9.9126C61.7641 9.9126 60.5844 11.1034 60.5844 12.5723V25.0284C60.5844 34.1211 53.2543 41.5187 44.2437 41.5187C35.2331 41.5187 27.9029 34.1211 27.9029 25.0284V12.5723C27.9029 11.1034 26.7232 9.9126 25.2673 9.9126Z" fill="black"/>
<path d="M138.889 61.1987H131.574L130.028 31.8023C129.954 30.3902 128.797 29.2834 127.396 29.2834H123.18V26.5722C123.18 21.3212 118.947 17.0493 113.743 17.0493C108.54 17.0493 104.306 21.3212 104.306 26.5722V29.2834H100.86C99.4586 29.2834 98.3021 30.3902 98.2279 31.8023L96.6824 61.1987H53.4992C52.0433 61.1987 50.8636 62.3896 50.8636 63.8585V116.519C50.8636 117.988 52.0433 119.178 53.4992 119.178H138.889C140.345 119.178 141.524 117.988 141.524 116.519V63.8585C141.525 62.3896 140.345 61.1987 138.889 61.1987ZM109.577 26.5726C109.577 24.2547 111.446 22.3691 113.743 22.3691C116.039 22.3691 117.908 24.2547 117.908 26.5726V29.2837H109.578V26.5726H109.577ZM103.359 34.6032H124.896L126.295 61.1987H101.96L103.359 34.6032ZM136.253 66.5182V74.4967H56.1348V66.5182H136.253ZM56.1348 113.859V79.8165H136.253V113.859H56.1348Z" fill="black"/>
</svg>
